<svg width="300" height="140" viewBox="0 0 300 140" fill="none" xmlns="http://www.w3.org/2000/svg">
<path fill-rule="evenodd" clip-rule="evenodd" d="M172.206 62.3242C175.858 66.8566 178.06 72.6085 178.101 78.8753C178.141 85.1422 175.936 91.0928 172.239 95.6943L171.92 96.0912L171.833 95.5901C171.754 95.1655 171.668 94.7353 171.568 94.3001C169.656 86.118 163.543 79.127 153.505 73.491C146.727 69.6957 142.836 65.1054 141.789 59.8669C141.114 56.4821 141.581 53.0754 142.508 50.1484C143.435 47.2279 144.821 44.7742 146.004 43.2997L149.87 38.5182C150.547 37.681 151.826 37.6701 152.512 38.5L172.217 62.31L172.206 62.3242ZM178.333 57.5338L152.076 25.7983C151.577 25.1936 150.646 25.1987 150.151 25.809L124.259 57.8391L124.174 57.9454C119.412 63.9307 116.578 71.5149 116.628 79.7527C116.734 98.9364 132.408 114.402 151.617 114.293C170.833 114.184 186.322 98.5398 186.209 79.3567C186.159 71.119 183.25 63.5699 178.416 57.6411L178.333 57.5338ZM130.52 62.4604L132.837 59.5944L132.908 60.1232C132.967 60.5435 133.038 60.9559 133.123 61.3797C134.676 69.291 140.11 75.8587 149.147 80.9191C157.008 85.3327 161.602 90.4343 162.941 96.0479C163.502 98.3915 163.613 100.7 163.388 102.716L163.376 102.84L163.266 102.898C159.74 104.642 155.77 105.64 151.569 105.661C136.831 105.745 124.818 93.8863 124.737 79.1738C124.703 72.8544 126.872 67.0435 130.526 62.4534L130.532 62.4527L130.52 62.4604Z" fill="#4DA2FF"/>
<path d="M231.797 58.1779C238.679 64.818 242.787 73.898 243.053 83.4894C243.06 83.7083 243.064 83.9272 243.066 84.1464C243.077 85.057 243.065 85.9985 243.411 86.8371C243.758 87.6758 244.582 88.3785 245.438 88.2317C246.071 88.1226 246.572 87.5747 246.819 86.9548C247.067 86.335 247.102 85.6457 247.123 84.9721C247.517 71.4628 242.077 57.8488 232.599 48.6171C231.452 47.4998 230.071 46.3717 228.417 46.9006C227.502 47.193 226.446 48.3691 226.101 49.3039C225.351 51.3258 226.591 53.0332 227.971 54.487L231.797 58.1779Z" fill="#4DA2FF"/>
<path d="M231.132 71.4139C232.454 69.9154 231.208 66.6243 228.349 64.063C225.49 61.5016 222.102 60.64 220.78 62.1384C219.458 63.6368 220.704 66.9279 223.563 69.4893C226.421 72.0506 229.81 72.9123 231.132 71.4139Z" fill="#4DA2FF"/>
<path d="M198.125 56.2499C198.283 55.6214 197.44 54.8629 196.242 54.5558C195.043 54.2488 193.944 54.5093 193.786 55.1378C193.628 55.7664 194.471 56.5248 195.67 56.8319C196.868 57.139 197.967 56.8784 198.125 56.2499Z" fill="#4DA2FF"/>
<path d="M113.689 30.7644C117.114 30.0934 119.582 27.9597 119.201 25.9984C118.821 24.0372 115.736 22.9912 112.311 23.6621C108.886 24.3331 106.418 26.4668 106.799 28.4281C107.179 30.3893 110.264 31.4353 113.689 30.7644Z" fill="#4DA2FF"/>
<path d="M128.772 39.3375C129.718 39.2323 130.436 38.708 130.376 38.1665C130.316 37.625 129.501 37.2713 128.555 37.3764C127.609 37.4816 126.891 38.0059 126.951 38.5474C127.011 39.0889 127.826 39.4426 128.772 39.3375Z" fill="#4DA2FF"/>
<path d="M87.8274 56.6659C88.9255 56.4508 89.7167 55.7668 89.5947 55.1382C89.4727 54.5095 88.4837 54.1743 87.3856 54.3893C86.2876 54.6044 85.4964 55.2884 85.6184 55.9171C85.7404 56.5457 86.7294 56.881 87.8274 56.6659Z" fill="#4DA2FF"/>
<path d="M70.9907 73.2298C71.4785 72.9329 71.738 72.4657 71.5702 72.1861C71.4025 71.9065 70.8711 71.9205 70.3833 72.2174C69.8954 72.5142 69.636 72.9815 69.8037 73.2611C69.9715 73.5407 70.5029 73.5266 70.9907 73.2298Z" fill="#4DA2FF"/>
<path d="M227.55 94.4894C229.268 91.6743 229.512 88.6795 228.096 87.8003C226.679 86.9211 224.137 88.4904 222.419 91.3056C220.701 94.1207 220.457 97.1156 221.874 97.9948C223.291 98.874 225.832 97.3046 227.55 94.4894Z" fill="#4DA2FF"/>
<path d="M188.193 29.5509L189.196 33.9015C189.386 34.725 190.006 35.3825 190.819 35.6204L195.114 36.8784C195.519 36.997 195.501 37.5753 195.09 37.6698L190.728 38.6698C189.902 38.8592 189.243 39.4782 189.004 40.2889L187.743 44.572C187.624 44.976 187.044 44.9588 186.949 44.5483L185.947 40.1978C185.757 39.3742 185.136 38.7167 184.323 38.4788L180.029 37.2208C179.624 37.1023 179.641 36.524 180.053 36.4294L184.415 35.4295C185.24 35.2401 185.9 34.6211 186.138 33.8103L187.4 29.5272C187.518 29.1232 188.098 29.1405 188.193 29.5509Z" fill="#4DA2FF"/>
<path d="M92.1743 111.729L91.8445 115.768C91.7822 116.533 92.1383 117.272 92.7764 117.7L96.1468 119.965C96.4648 120.179 96.2907 120.674 95.9085 120.643L91.858 120.315C91.0912 120.252 90.3502 120.608 89.9206 121.244L87.6501 124.605C87.436 124.923 86.9389 124.749 86.9698 124.368L87.2996 120.328C87.3619 119.563 87.0058 118.824 86.3677 118.396L82.9973 116.131C82.6793 115.918 82.8534 115.422 83.2356 115.453L87.2861 115.782C88.0529 115.844 88.7939 115.489 89.2235 114.852L91.494 111.491C91.7081 111.174 92.2052 111.347 92.1743 111.729Z" fill="#4DA2FF"/>
<path d="M42.446 44.6186L47.7483 47.5205C48.7521 48.0696 49.9749 48.0331 50.9459 47.4242L56.0767 44.2082C56.5606 43.9047 57.1301 44.4429 56.8561 44.9448L53.9489 50.2623C53.3987 51.2689 53.4327 52.4939 54.0386 53.4654L57.2388 58.599C57.5408 59.0831 57.0024 59.6547 56.502 59.3812L51.1997 56.4793C50.1959 55.9301 48.973 55.9666 48.0021 56.5756L42.8712 59.7915C42.3873 60.0951 41.8178 59.5568 42.0919 59.055L44.9991 53.7375C45.5492 52.7308 45.5153 51.5059 44.9093 50.5344L41.7092 45.4008C41.4071 44.9166 41.9455 44.345 42.446 44.6186Z" fill="#4DA2FF"/>
<circle cx="105.582" cy="87.4752" r="1.73513" transform="rotate(95.3131 105.582 87.4752)" fill="#4DA2FF"/>
<path fill-rule="evenodd" clip-rule="evenodd" d="M130.611 122.383C129.435 124.471 126.79 125.21 124.703 124.034C113.795 117.892 108.771 107.663 106.709 98.5787C106.452 97.4453 106.234 96.2987 106.05 95.1604C105.668 92.8046 108.339 92.415 109.172 94.6515C110.586 98.45 112.494 101.802 113.2 102.868C116.933 108.505 122.51 112.843 128.96 116.475C131.047 117.651 131.786 120.296 130.611 122.383Z" fill="#4DA2FF"/>
</svg>
